#!OML:ASF E:\motion texture\Top Level 1\Subject 1\Session 1\male.ASF
:FULLY-SPECIFIED
:DEGREES
557
root -28.9352 17.1535 3.64449 62.745 -80.0481 -55.1818
lowerback -2.45651 5.0441 6.13732
upperback 0.646257 6.52233 -0.148509
thorax 2.74349 3.34603 -3.21458
lowerneck -16.7411 -5.18689 -9.23461
upperneck 0.59103 -5.52638 6.19249
head 3.24389 -2.55359 2.95213
rclavicle 3.07122e-014 -3.97569e-015
rhumerus -27.8102 21.8576 -104.017
rradius 52.0942
rwrist 9.27626
rhand -21.5619 -25.0835
rfingers 7.12502
rthumb 4.83177 -55.0084
lclavicle 3.07122e-014 -3.97569e-015
lhumerus -31.9344 -6.54 98.194
lradius 52.8377
lwrist -14.8707
lhand -14.0124 19.0163
lfingers 7.12502
lthumb 12.1171 48.6454
rfemur 1.83616 2.29473 35.3774
rtibia 31.3765
rfoot -18.0119 -8.89394
rtoes -5.58987
lfemur -41.8804 -4.11611 -7.00795
ltibia 28.0593
lfoot -3.46359 -3.02876
ltoes -11.2412
558
root -29.1235 17.137 3.64824 62.2358 -80.1761 -54.7066
lowerback -2.37087 5.11263 6.01131
upperback 0.65306 6.62699 -0.249092
thorax 2.71096 3.39732 -3.24893
lowerneck -16.7395 -5.31113 -9.34255
upperneck 0.4603 -5.68568 6.47186
head 3.22848 -2.62024 3.04331
rclavicle -5.75482e-014 -1.27222e-014
rhumerus -27.9717 23.0362 -104.43
rradius 51.7434
rwrist 8.88232
rhand -21.5108 -24.9073
rfingers 7.12502
rthumb 4.88111 -54.8311
lclavicle -5.75482e-014 -1.27222e-014
lhumerus -31.9355 -6.44217 98.2197
lradius 52.7897
lwrist -14.7206
lhand -14.0411 19.0925
lfingers 7.12502
lthumb 12.0895 48.7232
rfemur 1.58633 1.85998 35.0396
rtibia 32.7374
rfoot -17.3764 -8.55071
rtoes -5.87703
lfemur -41.8615 -4.38495 -7.2446
ltibia 28.6615
lfoot -3.36895 -3.39756
ltoes -10.6136
559
root -29.3126 17.1229 3.65257 61.734 -80.314 -54.247
lowerback -2.28488 5.16805 5.8772
upperback 0.657527 6.71402 -0.346637
thorax 2.67261 3.43948 -3.27743
lowerneck -16.7464 -5.4311 -9.43885
upperneck 0.349284 -5.8413 6.75731
head 3.22083 -2.68477 3.13448
rclavicle -7.00716e-014 -1.82882e-014
rhumerus -28.2013 24.2386 -104.787
rradius 51.5807
rwrist 8.53013
rhand -21.4592 -24.7556
rfingers 7.12502
rthumb 4.93094 -54.6783
lclavicle -7.00716e-014 -1.82882e-014
lhumerus -31.9485 -6.3086 98.2171
lradius 52.732
lwrist -14.5761
lhand -14.0731 19.1732
lfingers 7.12502
lthumb 12.0586 48.8058
rfemur 1.28711 1.41893 34.6772
rtibia 34.1501
rfoot -16.6505 -8.23421
rtoes -6.05094
lfemur -41.8037 -4.63846 -7.49998
ltibia 29.3135
lfoot -3.30944 -3.75281
ltoes -9.95987
560
root -29.5024 17.1114 3.65755 61.2134 -80.4575 -53.7781
lowerback -2.19939 5.20796 5.7382
upperback 0.65953 6.78001 -0.440874
thorax 2.62876 3.47085 -3.30168
lowerneck -16.7544 -5.54489 -9.525
upperneck 0.253838 -5.99125 7.05149
head 3.21851 -2.74617 3.22703
rclavicle 6.85807e-015 -1.59028e-014
rhumerus -28.4983 25.4455 -105.089
rradius 51.6017
rwrist 8.23291
rhand -21.41 -24.6219
rfingers 7.12502
rthumb 4.97851 -54.5434
lclavicle 6.85807e-015 -1.59028e-014
lhumerus -31.9792 -6.13987 98.185
lradius 52.6705
lwrist -14.4393
lhand -14.1077 19.2588
lfingers 7.12502
lthumb 12.0252 48.8933
rfemur 0.941605 0.967418 34.292
rtibia 35.6057
rfoot -15.8384 -7.95242
rtoes -6.1276
lfemur -41.7027 -4.88281 -7.77299
ltibia 30.0022
lfoot -3.28645 -4.09055
ltoes -9.2876
561
root -29.6926 17.1025 3.66294 60.7661 -80.6135 -53.3858
lowerback -2.11615 5.23749 5.59337
upperback 0.655753 6.83179 -0.531395
thorax 2.5775 3.49469 -3.32022
lowerneck -16.7537 -5.64982 -9.60852
upperneck 0.165713 -6.13176 7.36263
head 3.21774 -2.8024 3.32532
rclavicle 2.08724e-014 -6.36111e-015
rhumerus -28.859 26.6459 -105.333
rradius 51.8004
rwrist 7.99834
rhand -21.3608 -24.5025
rfingers 7.12502
rthumb 5.02596 -54.4229
lclavicle 2.08724e-014 -6.36111e-015
lhumerus -32.0253 -5.93769 98.1237
lradius 52.5997
lwrist -14.3127
lhand -14.1483 19.3446
lfingers 7.12502
lthumb 11.9861 48.9814
rfemur 0.538447 0.52162 33.8876
rtibia 37.1062
rfoot -14.9458 -7.70772
rtoes -6.11364
lfemur -41.5617 -5.10473 -8.05588
ltibia 30.7171
lfoot -3.30218 -4.40012
ltoes -8.61346
562
root -29.8832 17.0964 3.66887 60.3109 -80.7755 -52.995
lowerback -2.03276 5.25147 5.44441
upperback 0.650356 6.86241 -0.617396
thorax 2.52121 3.50772 -3.33357
lowerneck -16.7564 -5.74781 -9.68309
upperneck 0.0933769 -6.26527 7.68057
head 3.22253 -2.85489 3.42466
rclavicle -1.38155e-014 2.22639e-014
rhumerus -29.2757 27.8256 -105.513
rradius 52.1708
rwrist 7.83771
rhand -21.3158 -24.3917
rfingers 7.12502
rthumb 5.0694 -54.3111
lclavicle -1.38155e-014 2.22639e-014
lhumerus -32.0834 -5.70347 98.0336
lradius 52.5168
lwrist -14.1996
lhand -14.1906 19.4348
lfingers 7.12502
lthumb 11.9453 49.074
rfemur 0.087904 0.0694446 33.4637
rtibia 38.6386
rfoot -13.9815 -7.50578
rtoes -6.00291
lfemur -41.3715 -5.32003 -8.35156
ltibia 31.4441
lfoot -3.3586 -4.68013
ltoes -7.93327
563
root -30.0741 17.0931 3.67518 59.8874 -80.9452 -52.6426
lowerback -1.95259 5.25066 5.29055
upperback 0.641693 6.8727 -0.697908
thorax 2.45999 3.51031 -3.33993
lowerneck -16.7564 -5.83594 -9.74798
upperneck 0.0344947 -6.38861 8.00502
head 3.23091 -2.90216 3.52529
rclavicle -4.46272e-014 5.56597e-015
rhumerus -29.7452 28.9785 -105.628
rradius 52.7049
rwrist 7.75646
rhand -21.2669 -24.2902
rfingers 7.12502
rthumb 5.1166 -54.2084
lclavicle -4.46272e-014 5.56597e-015
lhumerus -32.1544 -5.43578 97.9133
lradius 52.419
lwrist -14.1043
lhand -14.2304 19.5326
lfingers 7.12502
lthumb 11.9069 49.174
rfemur -0.413155 -0.38192 33.0236
rtibia 40.1978
rfoot -12.9569 -7.34806
rtoes -5.79785
lfemur -41.1306 -5.5256 -8.65451
ltibia 32.1681
lfoot -3.45442 -4.92406
ltoes -7.26758
564
root -30.265 17.0925 3.68175 59.5167 -81.1236 -52.348
lowerback -1.87557 5.23719 5.13183
upperback 0.629597 6.86551 -0.772118
thorax 2.39388 3.50388 -3.33823
lowerneck -16.7566 -5.91574 -9.80271
upperneck -0.00917721 -6.5036 8.33245
head 3.24376 -2.94521 3.62582
rclavicle -3.33958e-014 1.90833e-014
rhumerus -30.2591 30.0938 -105.67
rradius 53.3957
rwrist 7.75664
rhand -21.2243 -24.1942
rfingers 7.12502
rthumb 5.15777 -54.1114
lclavicle -3.33958e-014 1.90833e-014
lhumerus -32.2361 -5.14005 97.7655
lradius 52.3032
lwrist -14.0285
lhand -14.2688 19.6254
lfingers 7.12502
lthumb 11.8699 49.2689
rfemur -0.967146 -0.827216 32.5708
rtibia 41.7772
rfoot -11.8827 -7.23653
rtoes -5.50525
lfemur -40.8397 -5.71805 -8.96124
ltibia 32.8784
lfoot -3.58967 -5.13053
ltoes -6.62551
565
root -30.4559 17.0947 3.68865 59.1575 -81.3086 -52.0727
lowerback -1.80046 5.20801 4.96848
upperback 0.615217 6.83681 -0.840227
thorax 2.32311 3.48646 -3.329
lowerneck -16.7562 -5.98578 -9.85139
upperneck -0.0378838 -6.60799 8.66686
head 3.26092 -2.98273 3.72838
rclavicle -1.08338e-014 -7.95139e-016
rhumerus -30.8115 31.1661 -105.637
rradius 54.2348
rwrist 7.84099
rhand -21.1826 -24.1031
rfingers 7.12502
rthumb 5.19809 -54.0194
lclavicle -1.08338e-014 -7.95139e-016
lhumerus -32.3295 -4.81678 97.5892
lradius 52.1681
lwrist -13.9745
lhand -14.3105 19.7113
lfingers 7.12502
lthumb 11.8297 49.3572
rfemur -1.56805 -1.27378 32.1034
rtibia 43.3662
rfoot -10.7766 -7.17109
rtoes -5.12029
lfemur -40.4926 -5.90645 -9.27465
ltibia 33.5613
lfoot -3.76455 -5.29868
ltoes -6.01203
566
root -30.6467 17.0997 3.69579 58.84 -81.5008 -51.8453
lowerback -1.72757 5.16376 4.80243
upperback 0.597726 6.78741 -0.901922
thorax 2.24738 3.45847 -3.31282
lowerneck -16.7582 -6.0457 -9.88693
upperneck -0.0488282 -6.70216 8.99956
head 3.28306 -3.01516 3.82905
rclavicle 2.01766e-014 -3.18055e-015
rhumerus -31.3959 32.1937 -105.527
rradius 55.2151
rwrist 8.00698
rhand -21.1425 -24.016
rfingers 7.12502
rthumb 5.23673 -53.9313
lclavicle 2.01766e-014 -3.18055e-015
lhumerus -32.4335 -4.46545 97.3839
lradius 52.0104
lwrist -13.945
lhand -14.3535 19.796
lfingers 7.12502
lthumb 11.7882 49.4443
rfemur -2.21723 -1.71683 31.6254
rtibia 44.9581
rfoot -9.65725 -7.15104
rtoes -4.67868
lfemur -40.0894 -6.09016 -9.58984
ltibia 34.2061
lfoot -3.97649 -5.42703
ltoes -5.43099
567
root -30.8372 17.1074 3.70309 58.5829 -81.7022 -51.6843
lowerback -1.65817 5.10616 4.63171
upperback 0.577593 6.71958 -0.956465
thorax 2.16792 3.42107 -3.28746
lowerneck -16.7572 -6.09518 -9.91249
upperneck -0.0458815 -6.78568 9.33349
head 3.30831 -3.04225 3.92944
rclavicle -5.48646e-014 2.22639e-014
rhumerus -32.0047 33.1759 -105.331
rradius 56.3309
rwrist 8.24294
rhand -21.1079 -23.9371
rfingers 7.12502
rthumb 5.2702 -53.8515
lclavicle -5.48646e-014 2.22639e-014
lhumerus -32.5478 -4.09183 97.1514
lradius 51.8286
lwrist -13.9406
lhand -14.4014 19.8641
lfingers 7.12502
lthumb 11.742 49.515
rfemur -2.91389 -2.15184 31.1383
rtibia 46.5456
rfoot -8.5407 -7.17509
rtoes -4.16744
lfemur -39.6254 -6.26749 -9.90548
ltibia 34.7963
lfoot -4.22032 -5.51458
ltoes -4.8841
568
root -31.0274 17.1177 3.71044 58.4109 -81.9142 -51.6121
lowerback -1.59421 5.03598 4.45631
upperback 0.554317 6.63429 -1.00375
thorax 2.08552 3.37476 -3.25247
lowerneck -16.7566 -6.13402 -9.92499
upperneck -0.0257812 -6.85856 9.66373
head 3.33773 -3.0641 4.02746
rclavicle 1.18973e-013 -7.95139e-016
rhumerus -32.6301 34.1145 -105.048
rradius 57.574
rwrist 8.54264
rhand -21.0753 -23.8658
rfingers 7.12502
rthumb 5.30163 -53.7795
lclavicle 1.18973e-013 -7.95139e-016
lhumerus -32.6721 -3.69758 96.8922
lradius 51.6197
lwrist -13.9626
lhand -14.4517 19.9239
lfingers 7.12502
lthumb 11.6935 49.5776
rfemur -3.65816 -2.57423 30.6448
rtibia 48.1194
rfoot -7.44296 -7.24004
rtoes -3.60837
lfemur -39.1003 -6.43624 -10.2202
ltibia 35.3207
lfoot -4.49513 -5.56019
ltoes -4.38313
569
root -31.2171 17.1307 3.71779 58.3337 -82.1356 -51.6396
lowerback -1.53487 4.95377 4.27777
upperback 0.529474 6.53227 -1.04299
thorax 2.00166 3.32001 -3.20773
lowerneck -16.7571 -6.16238 -9.92635
upperneck 0.00941142 -6.92072 9.99114
head 3.37081 -3.08057 4.12372
rclavicle -1.10325e-014 -2.38542e-015
rhumerus -33.2592 35.0114 -104.669
rradius 58.9369
rwrist 8.89746
rhand -21.0428 -23.8022
rfingers 7.12502
rthumb 5.33305 -53.7151
lclavicle -1.10325e-014 -2.38542e-015
lhumerus -32.8037 -3.28646 96.6081
lradius 51.3827
lwrist -14.0119
lhand -14.4978 19.9826
lfingers 7.12502
lthumb 11.6491 49.6388
rfemur -4.44692 -2.98387 30.1483
rtibia 49.671
rfoot -6.37935 -7.34301
rtoes -3.02806
lfemur -38.512 -6.59637 -10.5325
ltibia 35.7701
lfoot -4.79779 -5.56633
ltoes -3.91872
570
root -31.4061 17.146 3.72506 58.3103 -82.3621 -51.7222
lowerback -1.48046 4.85642 4.09616
upperback 0.500959 6.40943 -1.07476
thorax 1.91425 3.25471 -3.15407
lowerneck -16.7586 -6.17996 -9.91727
upperneck 0.0626802 -6.9719 10.3163
head 3.40839 -3.09144 4.21855
rclavicle -1.32192e-014 4.77083e-015
rhumerus -33.8855 35.8663 -104.192
rradius 60.4118
rwrist 9.29703
rhand -21.003 -23.7453
rfingers 7.12502
rthumb 5.37147 -53.6572
lclavicle -1.32192e-014 4.77083e-015
lhumerus -32.9449 -2.86018 96.2985
lradius 51.1164
lwrist -14.0887
lhand -14.5385 20.0366
lfingers 7.12502
lthumb 11.6098 49.695
rfemur -5.28195 -3.38683 29.6505
rtibia 51.1915
rfoot -5.36317 -7.48185
rtoes -2.4351
lfemur -37.867 -6.75342 -10.8436
ltibia 36.1407
lfoot -5.12683 -5.53765
ltoes -3.51115
